<svg width="481" height="87" viewBox="0 0 481 87" fill="none" xmlns="http://www.w3.org/2000/svg">
<path d="M455.529 345.965C474.247 307.869 482.528 265.49 479.525 223.15C476.523 180.809 462.345 140.023 438.437 104.949C414.53 69.8759 381.748 41.7705 343.435 23.4992C305.122 5.22793 262.649 -2.55548 220.347 0.942723C178.045 4.44093 137.427 19.0956 102.636 43.4122C67.845 67.7289 40.1254 100.838 22.3041 139.362C4.48282 177.886 -2.80258 220.447 1.19083 262.706C5.18425 304.964 20.3137 345.407 45.0361 379.911L105.038 336.919C87.9191 313.027 77.4429 285.023 74.6777 255.761C71.9125 226.5 76.9572 197.029 89.2975 170.353C101.638 143.677 120.832 120.751 144.922 103.914C169.013 87.0757 197.139 76.9282 226.43 74.5059C255.722 72.0836 285.132 77.4732 311.662 90.125C338.191 102.777 360.89 122.238 377.445 146.524C393.999 170.811 403.817 199.053 405.896 228.371C407.975 257.689 402.241 287.034 389.28 313.413L455.529 345.965Z" fill="white" fill-opacity="0.14"/>
</svg>
